<svg xmlns="http://www.w3.org/2000/svg" width="65.14" height="71.68" viewBox="0 0 65.14 71.68"><defs><style>.cls-1{fill:none;}.cls-2{fill:#545454;}.cls-3{fill:#00d0d0;}</style></defs><g id="Layer_2" data-name="Layer 2"><g id="Layer_1-2" data-name="Layer 1"><path class="cls-1" d="M10,39.69l.28,0A1.72,1.72,0,0,0,12,38.24l0-.11a1.77,1.77,0,0,0-.31-1.3,1.72,1.72,0,0,0-1.14-.69l-5-.79-.28,0A1.76,1.76,0,0,0,3.6,36.81a1.78,1.78,0,0,0,.3,1.4,1.71,1.71,0,0,0,1.14.7Z"/><path class="cls-1" d="M5,24.07l4.29.67.2,0a1.27,1.27,0,0,0,.74-.25,1.23,1.23,0,0,0,.5-.82,1.28,1.28,0,0,0-.21-1,1.23,1.23,0,0,0-.83-.51l-4.28-.67-.21,0a1.27,1.27,0,0,0-.74.25,1.23,1.23,0,0,0-.5.82,1.36,1.36,0,0,0,.21,1A1.29,1.29,0,0,0,5,24.07Z"/><path class="cls-1" d="M9.24,45.37a1.09,1.09,0,0,0,.62-.2,1,1,0,0,0,.41-.68,1.08,1.08,0,0,0-.86-1.29l-4-.62H5.26a1.05,1.05,0,0,0-1,.88,1,1,0,0,0,.86,1.29l4,.62Z"/><path class="cls-1" d="M5.81,28a1.75,1.75,0,0,0-1.72,1.47v.11a1.68,1.68,0,0,0,.31,1.3,1.73,1.73,0,0,0,1.14.69l5,.78a1.27,1.27,0,0,0,.28,0,1.72,1.72,0,0,0,1-.33,1.77,1.77,0,0,0,.7-1.14v-.11a1.73,1.73,0,0,0-.31-1.3,1.76,1.76,0,0,0-1.14-.69l-5-.78A1.37,1.37,0,0,0,5.81,28Z"/><path class="cls-1" d="M23.9,6.35a.7.7,0,0,0,.7.71H37.31a.7.7,0,0,0,.7-.71,6.41,6.41,0,0,1,.37-2.11H23.52A6.17,6.17,0,0,1,23.9,6.35Z"/><path class="cls-2" d="M63.51,65.51,62.26,66a17.65,17.65,0,0,1-6.71,1.41,13.93,13.93,0,0,1-5.39-1.06A7.75,7.75,0,0,0,53.54,60V48.45l.41-.2L53.35,47c0-.08-3.88-8,.39-13.48l.68-.85-2.79-9.61a1,1,0,0,1,.62-1.23,1.28,1.28,0,0,1,.35-.06,1.1,1.1,0,0,1,.44.11,1,1,0,0,1,.51.59l6.77,20.43,4-1.34L57.57,21.15a5.28,5.28,0,0,0-2.65-3,5.41,5.41,0,0,0-1.38-.44V7.76A7.77,7.77,0,0,0,45.78,0H16.13A7.77,7.77,0,0,0,8.37,7.76v8H12.6v-8a3.53,3.53,0,0,1,3.53-3.52h1.41a2.12,2.12,0,0,1,2.12,2.11,4.94,4.94,0,0,0,4.94,4.94H37.31a4.94,4.94,0,0,0,4.94-4.94,2.12,2.12,0,0,1,2.12-2.11h1.41a3.53,3.53,0,0,1,3.53,3.52v11a5.25,5.25,0,0,0-1.76,5.53l2.2,7.58c-4.28,6.49-1.35,14.43-.44,16.53V60a3.54,3.54,0,0,1-3.53,3.53H16.13A3.53,3.53,0,0,1,12.6,60V50.9H8.37V60a7.77,7.77,0,0,0,7.76,7.76H44.37l.48.41a17.08,17.08,0,0,0,10.71,3.51,21.48,21.48,0,0,0,8.31-1.74l1.27-.51ZM38,6.35a.7.7,0,0,1-.7.71H24.6a.7.7,0,0,1-.7-.71,6.17,6.17,0,0,0-.38-2.11H38.38A6.41,6.41,0,0,0,38,6.35Z"/><path class="cls-2" d="M9.24,48.94a4.64,4.64,0,0,0,4.56-4,4.52,4.52,0,0,0-.41-2.71h0a5.24,5.24,0,0,0,2.12-3.46l0-.11a5.3,5.3,0,0,0-.95-4l-.2-.25A5.25,5.25,0,0,0,16,31.41l0-.11a5.26,5.26,0,0,0-.95-3.94A5.13,5.13,0,0,0,13.56,26a5,5,0,0,0,.65-1.82,4.82,4.82,0,0,0-4-5.52L5.9,18a4.76,4.76,0,0,0-3.58.87,4.94,4.94,0,0,0-1.08,6.83,4.45,4.45,0,0,0,.54.61A5.24,5.24,0,0,0,.57,28.88V29a5.29,5.29,0,0,0,1,3.94l.21.27A5.27,5.27,0,0,0,.08,36.27v.09a5.26,5.26,0,0,0,1,4,6.2,6.2,0,0,0,.53.62A4.71,4.71,0,0,0,.7,43a4.61,4.61,0,0,0,3.84,5.27l4,.62A4.37,4.37,0,0,0,9.24,48.94Zm2.95-19.49a1.73,1.73,0,0,1,.31,1.3v.11a1.77,1.77,0,0,1-.7,1.14,1.72,1.72,0,0,1-1,.33,1.27,1.27,0,0,1-.28,0l-5-.78a1.73,1.73,0,0,1-1.14-.69,1.68,1.68,0,0,1-.31-1.3v-.11A1.75,1.75,0,0,1,5.81,28a1.37,1.37,0,0,1,.28,0l5,.78A1.76,1.76,0,0,1,12.19,29.45ZM4.41,21.71a1.27,1.27,0,0,1,.74-.25l.21,0,4.28.67a1.23,1.23,0,0,1,.83.51,1.28,1.28,0,0,1,.21,1,1.23,1.23,0,0,1-.5.82,1.27,1.27,0,0,1-.74.25l-.2,0L5,24.07a1.29,1.29,0,0,1-.83-.51,1.36,1.36,0,0,1-.21-1A1.23,1.23,0,0,1,4.41,21.71ZM3.9,38.21a1.78,1.78,0,0,1-.3-1.4,1.76,1.76,0,0,1,1.72-1.48l.28,0,5,.79a1.72,1.72,0,0,1,1.14.69,1.77,1.77,0,0,1,.31,1.3l0,.11a1.72,1.72,0,0,1-1.71,1.47l-.28,0-5-.78A1.71,1.71,0,0,1,3.9,38.21Zm.5,6.11a1.1,1.1,0,0,1-.17-.87,1.05,1.05,0,0,1,1-.88h.17l4,.62a1.08,1.08,0,0,1,.86,1.29,1,1,0,0,1-.41.68,1.09,1.09,0,0,1-.62.2H9.07l-4-.62A1.11,1.11,0,0,1,4.4,44.32Z"/><path class="cls-3" d="M41.19,23.67,27.81,39.47,22,34l-2.43,3.1,7.13,6.7a1.82,1.82,0,0,0,1.25.51,1.88,1.88,0,0,0,1.41-.67l14.58-17.2Z"/></g></g></svg>