<svg xmlns="http://www.w3.org/2000/svg" width="65.78" height="68.41" viewBox="0 0 65.78 68.41"><defs><style>.cls-1{fill:#545454;}.cls-2{fill:#00d0d0;}</style></defs><g id="Layer_2" data-name="Layer 2"><g id="Layer_1-2" data-name="Layer 1"><path class="cls-1" d="M54.14,54.09H24a7.85,7.85,0,0,1-7.72-6.21L9.62,18.27A3.58,3.58,0,0,0,6.1,15.42H0V11.13H6.1a7.82,7.82,0,0,1,7.71,6.21L20.45,47A3.59,3.59,0,0,0,24,49.79H54.14A3.58,3.58,0,0,0,57.62,47L61,32.16l4.19.94L61.82,47.94a7.9,7.9,0,0,1-7.68,6.15Z"/><path class="cls-1" d="M13.61,22.58H35.09v4.3H13.61Z"/><circle class="cls-1" cx="27.21" cy="64.12" r="4.3"/><circle class="cls-1" cx="50.13" cy="64.12" r="4.3"/><path class="cls-2" d="M52.17,31.51A5,5,0,0,1,48.6,30l-12-11.55a7.85,7.85,0,0,1-2.31-5.57V3.58A3.59,3.59,0,0,1,37.85,0h9.31a7.78,7.78,0,0,1,5.53,2.27L64.33,14.38a4.92,4.92,0,0,1,1.45,3.52,5,5,0,0,1-1.47,3.55L55.72,30A5,5,0,0,1,52.17,31.51ZM38.57,4.3v8.59a3.52,3.52,0,0,0,1,2.51L51.62,27a1,1,0,0,0,1.05.05l8.6-8.6a.69.69,0,0,0,.21-.5.72.72,0,0,0-.21-.52L49.63,5.28a3.52,3.52,0,0,0-2.47-1Z"/></g></g></svg>