<svg xmlns="http://www.w3.org/2000/svg" width="29.38" height="32.33" viewBox="0 0 29.38 32.33"><defs><style>.cls-1{fill:#fff;}</style></defs><g id="Layer_2" data-name="Layer 2"><g id="Layer_1-2" data-name="Layer 1"><path class="cls-1" d="M28.65,29.55l-.57.23a8,8,0,0,1-3,.64,6.38,6.38,0,0,1-2.44-.48,3.48,3.48,0,0,0,1.53-2.88V21.85l.18-.09-.27-.55s-1.75-3.62.18-6.08l.3-.38-1.25-4.34a.45.45,0,0,1,.28-.55l.15,0a.49.49,0,0,1,.2.05.47.47,0,0,1,.23.27l3.06,9.21,1.81-.6L26,9.54a2.35,2.35,0,0,0-1.2-1.37A2.39,2.39,0,0,0,24.15,8V3.5A3.5,3.5,0,0,0,20.65,0H7.28A3.51,3.51,0,0,0,3.77,3.5V7.09H5.68V3.5a1.6,1.6,0,0,1,1.6-1.59h.63a1,1,0,0,1,1,1A2.23,2.23,0,0,0,11.1,5.09h5.73a2.23,2.23,0,0,0,2.23-2.22,1,1,0,0,1,1-1h.64A1.59,1.59,0,0,1,22.24,3.5V8.45a2.36,2.36,0,0,0-.79,2.49l1,3.42c-1.93,2.93-.61,6.51-.2,7.46v5.24a1.59,1.59,0,0,1-1.59,1.59H7.28a1.6,1.6,0,0,1-1.6-1.59V23H3.77v4.1a3.51,3.51,0,0,0,3.51,3.5H20l.22.19a7.73,7.73,0,0,0,4.83,1.58,9.73,9.73,0,0,0,3.75-.78l.57-.23ZM17.15,2.87a.32.32,0,0,1-.32.31H11.1a.31.31,0,0,1-.32-.31,2.77,2.77,0,0,0-.17-1h6.7A3,3,0,0,0,17.15,2.87Z"/><path class="cls-1" d="M4.17,22.07a2.09,2.09,0,0,0,2.06-1.79A2.12,2.12,0,0,0,6,19.06H6a2.38,2.38,0,0,0,1-1.57v0a2.35,2.35,0,0,0-.43-1.78.47.47,0,0,0-.09-.12,2.35,2.35,0,0,0,.74-1.38v-.05a2.41,2.41,0,0,0-.43-1.78,2.44,2.44,0,0,0-.69-.63,2.24,2.24,0,0,0,.3-.82A2.18,2.18,0,0,0,4.6,8.4L2.66,8.1a1.87,1.87,0,0,0-.34,0A2.2,2.2,0,0,0,1,8.49,2.22,2.22,0,0,0,.17,10a2.17,2.17,0,0,0,.39,1.62,2.09,2.09,0,0,0,.24.28A2.38,2.38,0,0,0,.26,13v0a2.35,2.35,0,0,0,.43,1.78.4.4,0,0,0,.1.12A2.35,2.35,0,0,0,0,16.36v0a2.36,2.36,0,0,0,.43,1.78,2.09,2.09,0,0,0,.24.28,2.2,2.2,0,0,0-.39.93,2.07,2.07,0,0,0,1.74,2.37l1.79.29ZM5.5,13.29a.78.78,0,0,1,.14.58v.05a.74.74,0,0,1-.31.51.79.79,0,0,1-.46.15H4.73l-2.24-.35A.77.77,0,0,1,2,13.91a.82.82,0,0,1-.14-.59v-.05a.79.79,0,0,1,.77-.66h.13L5,13A.8.8,0,0,1,5.5,13.29ZM2,9.79a.57.57,0,0,1,.33-.11h.1l1.93.3a.58.58,0,0,1,.47.69.6.6,0,0,1-.23.38.57.57,0,0,1-.33.11H4.17l-1.94-.3a.61.61,0,0,1-.37-.23.62.62,0,0,1-.1-.47A.61.61,0,0,1,2,9.79Zm-.23,7.44a.78.78,0,0,1-.14-.63.79.79,0,0,1,.78-.66h.12l2.24.35a.79.79,0,0,1,.52.31.82.82,0,0,1,.14.59v.05a.77.77,0,0,1-.31.51.79.79,0,0,1-.46.15H4.51l-2.24-.35A.76.76,0,0,1,1.76,17.23ZM2,20a.47.47,0,0,1-.08-.39.46.46,0,0,1,.46-.4h.08l1.8.29a.48.48,0,0,1,.38.58.45.45,0,0,1-.18.3.5.5,0,0,1-.28.1H4.09L2.3,20.18A.46.46,0,0,1,2,20Z"/><path class="cls-1" d="M17.69,13.06l-.12.27a4.23,4.23,0,0,1-.69,1.11,3.33,3.33,0,0,1-2.63,1.22,3.53,3.53,0,0,1-2.71-1.24,5.08,5.08,0,0,1-.76-1.12L10.65,13l-1.34.5.15.32a6.29,6.29,0,0,0,1,1.49,5,5,0,0,0,3.81,1.75A4.79,4.79,0,0,0,18,15.33a6.53,6.53,0,0,0,.91-1.5l.14-.33Z"/><path class="cls-1" d="M11.41,10.94a1.11,1.11,0,1,0-1.1-1.1A1.1,1.1,0,0,0,11.41,10.94Z"/><path class="cls-1" d="M17,10.94a1.11,1.11,0,1,0-1.11-1.1A1.1,1.1,0,0,0,17,10.94Z"/></g></g></svg>