<svg xmlns="http://www.w3.org/2000/svg" viewBox="0 0 40.3 40.3"><defs><style>.cls-1{fill:#02bab9;}.cls-2{fill:none;stroke:#02bab9;stroke-miterlimit:10;}</style></defs><g id="Layer_2" data-name="Layer 2"><g id="Layer_1-2" data-name="Layer 1"><g id="wXKr8q"><path class="cls-1" d="M21.33,16.44c.3-.32.54-.64.83-.91a4.11,4.11,0,0,1,3-1.07,4.77,4.77,0,0,1,2.65.75,4.36,4.36,0,0,1,1.76,2.37A8.08,8.08,0,0,1,30,20.16v6.9c0,.2-.05.26-.24.25H26c-.2,0-.25,0-.25-.25V20.71a4.39,4.39,0,0,0-.3-1.82,1.82,1.82,0,0,0-1.86-1.13A2.26,2.26,0,0,0,21.34,20c0,1.76,0,3.51,0,5.26v1.89c0,.13,0,.2-.18.2H17.26l-.13,0V14.77l.23,0h3.73c.18,0,.24.05.24.24,0,.4,0,.81,0,1.22C21.32,16.28,21.33,16.35,21.33,16.44Z"/><path class="cls-1" d="M10.59,14.77h4.2a1.94,1.94,0,0,1,0,.24v12c0,.19-.05.26-.25.25H10.83c-.19,0-.24,0-.24-.25V14.77Z"/><path class="cls-1" d="M12.74,8.7A2.22,2.22,0,0,1,14.8,9.83a2.11,2.11,0,0,1-1.13,3,2.71,2.71,0,0,1-2.18-.1,2.14,2.14,0,0,1-1.06-2.47A2.26,2.26,0,0,1,12.74,8.7Z"/></g><circle class="cls-2" cx="20.15" cy="20.15" r="19.65"/></g></g></svg>