<svg xmlns="http://www.w3.org/2000/svg" width="28.76" height="31.39" viewBox="0 0 28.76 31.39"><defs><style>.cls-1{fill:#fff;}</style></defs><g id="Layer_2" data-name="Layer 2"><g id="Layer_1-2" data-name="Layer 1"><path class="cls-1" d="M15.13,28.46a.89.89,0,0,0-.85-.62.75.75,0,0,0-.26,0,9.53,9.53,0,0,1-2.79.42,8.83,8.83,0,0,1-4.13-1A10.18,10.18,0,0,1,1.86,16.85c.32-2.73,1.05-4.55,2.23-5.56l.11-.1,0,.15a7.52,7.52,0,0,0,2.91,4.23.91.91,0,0,0,.53.18.9.9,0,0,0,.89-.93A17.43,17.43,0,0,1,14,1.84l.14-.13,0,.19c.48,3.16,2,5.69,3.46,8.15v0a22.57,22.57,0,0,1,2.83,6,.89.89,0,0,0,.87.67.76.76,0,0,0,.21,0,.89.89,0,0,0,.65-1.07,24.48,24.48,0,0,0-3-6.47c-1.45-2.43-2.8-4.7-3.23-7.5A1.89,1.89,0,0,0,14.63.1,1.7,1.7,0,0,0,14,0a1.78,1.78,0,0,0-1.22.5,19.5,19.5,0,0,0-5.93,12l0,.28-.16-.24A6.89,6.89,0,0,1,6,10.83a1.91,1.91,0,0,0-1.29-1.3,1.68,1.68,0,0,0-.5-.07A1.81,1.81,0,0,0,3,9.87C.9,11.67.34,14.6.1,16.64a11.92,11.92,0,0,0,6.16,12.2,10.61,10.61,0,0,0,5,1.24,11.09,11.09,0,0,0,3.31-.51A.89.89,0,0,0,15.13,28.46Z"/><path class="cls-1" d="M18.33,23.49A2.53,2.53,0,1,0,15.8,21,2.53,2.53,0,0,0,18.33,23.49Zm0-3.29a.76.76,0,1,1-.76.76A.76.76,0,0,1,18.33,20.2Z"/><path class="cls-1" d="M26.22,26.33a2.53,2.53,0,1,0,2.54,2.53A2.53,2.53,0,0,0,26.22,26.33Zm0,3.29a.76.76,0,1,1,.76-.76A.76.76,0,0,1,26.22,29.62Z"/><rect class="cls-1" x="15.34" y="24.05" width="13.88" height="1.77" transform="translate(-11.06 27.47) rotate(-52.56)"/></g></g></svg>