<?xml version="1.0" encoding="utf-8"?>
<!-- Generator: Adobe Illustrator 25.0.0, SVG Export Plug-In . SVG Version: 6.00 Build 0)  -->
<svg version="1.1" id="Layer_1" xmlns="http://www.w3.org/2000/svg" xmlns:xlink="http://www.w3.org/1999/xlink" x="0px" y="0px"
	 viewBox="0 0 10.7 7.3" style="enable-background:new 0 0 10.7 7.3;" xml:space="preserve">
<style type="text/css">
	.st0{fill:url(#SVGID_1_);}
</style>
<g id="Layer_2_1_">
	<g id="Layer_1-2">
		<g>
			<linearGradient id="SVGID_1_" gradientUnits="userSpaceOnUse" x1="5.3437" y1="7.2786" x2="5.3437" y2="-2.217925e-03">
				<stop  offset="0" style="stop-color:#29CECE"/>
				<stop  offset="0.48" style="stop-color:#29CFCC"/>
				<stop  offset="0.66" style="stop-color:#27D3C5"/>
				<stop  offset="0.78" style="stop-color:#24DBBA"/>
				<stop  offset="0.88" style="stop-color:#20E5A9"/>
				<stop  offset="0.97" style="stop-color:#1BF393"/>
				<stop  offset="1" style="stop-color:#18FA88"/>
			</linearGradient>
			<path class="st0" d="M10.7,2.7v3.9c0,0.4-0.3,0.6-0.6,0.6h0C9.7,7.3,9.4,7,9.4,6.7V3.1c0-0.2,0-0.4,0-0.7c0-0.2-0.1-0.4-0.2-0.5
				C9.1,1.7,8.8,1.5,8.6,1.4C8.3,1.2,8,1.2,7.7,1.2c-0.3,0-0.6,0.1-0.9,0.2C6.5,1.5,6.3,1.7,6.2,2C6.1,2.3,6,2.6,6,2.9v3.7
				C6,7,5.7,7.3,5.4,7.3C5,7.3,4.7,7,4.7,6.7V2.9c0-0.2,0-0.3,0-0.5c0-0.2-0.1-0.4-0.2-0.5C4.4,1.7,4.2,1.5,3.9,1.4
				C3.6,1.2,3.3,1.2,3,1.2c-0.3,0-0.6,0.1-0.9,0.2C1.8,1.5,1.6,1.8,1.5,2C1.4,2.4,1.3,2.7,1.3,3.1v3.6C1.3,7,1,7.3,0.7,7.3h0
				C0.3,7.3,0,7,0,6.7v-4c0-0.5,0.1-0.9,0.3-1.4C0.4,1.2,0.5,1,0.7,0.8C0.8,0.6,1,0.5,1.2,0.4C1.5,0.3,1.8,0.2,2,0.1
				C2.3,0,2.7,0,3,0c0.6,0,1.1,0.1,1.7,0.3C4.9,0.4,5,0.6,5.2,0.7l0.1,0.1l0.1-0.1c0.1-0.1,0.3-0.2,0.4-0.3c0.2-0.1,0.5-0.2,0.8-0.3
				C7,0,7.3,0,7.7,0c0.6,0,1.1,0.1,1.7,0.3c0.4,0.2,0.8,0.5,1,0.9c0.1,0.2,0.2,0.4,0.3,0.7C10.7,2.2,10.7,2.4,10.7,2.7z"/>
		</g>
	</g>
</g>
</svg>
