<svg xmlns="http://www.w3.org/2000/svg" viewBox="0 0 40.3 40.3"><defs><style>.cls-1{fill:#02bab9;}.cls-2{fill:none;stroke:#02bab9;stroke-miterlimit:10;}</style></defs><g id="Layer_2" data-name="Layer 2"><g id="Layer_1-2" data-name="Layer 1"><g id="cnWeHi"><path class="cls-1" d="M8.5,24V14.61c0-.26.09-.53.11-.8a6.18,6.18,0,0,1,6-6.06c3.69-.12,7.4-.12,11.09,0a6.11,6.11,0,0,1,6,6.06c.1,3.65.09,7.32,0,11a6,6,0,0,1-4.86,5.87c-.73.18-1.5.23-2.24.34h-9c-.31,0-.61-.1-.92-.12A6.21,6.21,0,0,1,8.77,25.8C8.64,25.19,8.59,24.57,8.5,24Zm11.7,4.8h0c1.73,0,3.46.06,5.19,0a4.09,4.09,0,0,0,4.23-4.17c.1-3.52.07-7,0-10.57a3.77,3.77,0,0,0-1.93-3.46,5.67,5.67,0,0,0-2.43-.7c-3.38-.07-6.77-.08-10.16,0a4.14,4.14,0,0,0-4.39,4.38q-.11,5.07,0,10.16a4.17,4.17,0,0,0,4.4,4.38C16.81,28.81,18.5,28.76,20.2,28.76Z"/><path class="cls-1" d="M26.17,19.31a6,6,0,1,1-6-6A5.95,5.95,0,0,1,26.17,19.31Zm-6-3.9a3.88,3.88,0,1,0,3.85,3.91A3.85,3.85,0,0,0,20.21,15.41Z"/><path class="cls-1" d="M27.81,13.07a1.4,1.4,0,0,1-1.42,1.39A1.43,1.43,0,0,1,25,13a1.4,1.4,0,0,1,1.44-1.37A1.35,1.35,0,0,1,27.81,13.07Z"/></g><circle class="cls-2" cx="20.15" cy="20.15" r="19.65"/></g></g></svg>