<svg xmlns="http://www.w3.org/2000/svg" width="23.22" height="38.31" viewBox="0 0 23.22 38.31"><defs><style>.cls-1{fill:none;}.cls-2{fill:#fff;}</style></defs><g id="Layer_2" data-name="Layer 2"><g id="Layer_1-2" data-name="Layer 1"><path class="cls-1" d="M20.23,27.25a1.15,1.15,0,0,0-.83.33l-.09.09a.89.89,0,0,1-.63.25.9.9,0,0,1-.62-.25A.88.88,0,0,1,18,26.48v-.15l.1,0,1.5-1.5a1.21,1.21,0,0,0-.86-2.06,1.23,1.23,0,0,0-.84.33l-1.56,1.56a.88.88,0,0,1-1.51-.62.93.93,0,0,1,.25-.63l3-3a1.23,1.23,0,0,0,.35-.85,1.27,1.27,0,0,0-.35-.86,1.23,1.23,0,0,0-1.7,0l-3.05,3.05a.88.88,0,0,1-1.25,0,.88.88,0,0,1,0-1.25l3-3,.14.06-.11-.1,4.35-4.35A1.22,1.22,0,0,0,18.67,11a1.23,1.23,0,0,0-.85.35L6.7,22.47a.88.88,0,0,1-.63.26.9.9,0,0,1-.28,0,.93.93,0,0,1-.6-.71L4,14.54a1.68,1.68,0,0,0-1.66-1.45.6.6,0,0,0-.6.6v14a6.45,6.45,0,0,0,1.92,4.61L6,34.63a6.48,6.48,0,0,0,4.61,1.91A6.56,6.56,0,0,0,15,34.84l6.1-5.56a1.21,1.21,0,0,0,0-1.67A1.18,1.18,0,0,0,20.23,27.25Z"/><path class="cls-2" d="M22.33,26.34a2.85,2.85,0,0,0-1.09-.69,3,3,0,0,0-.39-3.76,2.81,2.81,0,0,0-1.1-.69,2.88,2.88,0,0,0,.5-1.64,3,3,0,0,0-.88-2.12,2.92,2.92,0,0,0-1-.66l2.47-2.47a3,3,0,0,0-2.12-5.09,3,3,0,0,0-2.1.87L6.68,20l-.9-5.71a3.47,3.47,0,0,0-3.41-3A2.37,2.37,0,0,0,0,13.69v14a8.25,8.25,0,0,0,2.43,5.87l2.34,2.33a8.27,8.27,0,0,0,11.44.26l6.13-5.58a3,3,0,0,0,0-4.22Zm-1.21,2.94L15,34.84a6.56,6.56,0,0,1-4.39,1.7A6.48,6.48,0,0,1,6,34.63L3.69,32.29a6.45,6.45,0,0,1-1.92-4.61v-14a.6.6,0,0,1,.6-.6A1.68,1.68,0,0,1,4,14.54L5.19,22a.93.93,0,0,0,.6.71.9.9,0,0,0,.28,0,.88.88,0,0,0,.63-.26L17.82,11.34a1.23,1.23,0,0,1,.85-.35,1.21,1.21,0,0,1,.86,2.07l-7.41,7.42a.88.88,0,0,0,0,1.25.88.88,0,0,0,1.25,0l3.05-3.05a1.23,1.23,0,0,1,1.7,0,1.27,1.27,0,0,1,.35.86,1.23,1.23,0,0,1-.35.85l-3,3a.93.93,0,0,0-.25.63.88.88,0,0,0,1.51.62l1.56-1.56a1.23,1.23,0,0,1,.84-.33,1.21,1.21,0,0,1,.86,2.06l-1.5,1.5-.1,0v.15a.88.88,0,0,0,.06,1.19.9.9,0,0,0,.62.25.89.89,0,0,0,.63-.25l.09-.09a1.15,1.15,0,0,1,.83-.33,1.21,1.21,0,0,1,1.21,1.21A1.17,1.17,0,0,1,21.12,29.28Z"/><path class="cls-2" d="M8.67,4.94a1,1,0,0,0,1-1V1A1,1,0,1,0,7.63,1V3.9A1,1,0,0,0,8.67,4.94Z"/><path class="cls-2" d="M13.45,7.45a1,1,0,0,0,.73-.3l2-2a1,1,0,0,0,0-1.47,1,1,0,0,0-1.46,0l-2,2a1.07,1.07,0,0,0-.3.74,1,1,0,0,0,.3.73A1,1,0,0,0,13.45,7.45Z"/><path class="cls-2" d="M3.16,7.15a1,1,0,0,0,.73.3,1,1,0,0,0,.73-.3,1,1,0,0,0,0-1.47l-2-2a1,1,0,0,0-.74-.31,1,1,0,0,0-.73.31,1,1,0,0,0,0,1.46Z"/></g></g></svg>