<svg xmlns="http://www.w3.org/2000/svg" viewBox="0 0 40.3 40.3"><defs><style>.cls-1{fill:#02bab9;fill-rule:evenodd;}.cls-2{fill:none;stroke:#02bab9;stroke-miterlimit:10;}</style></defs><g id="Layer_2" data-name="Layer 2"><g id="Layer_1-2" data-name="Layer 1"><path class="cls-1" d="M16.62,26.16c0-2.12,0-4.24,0-6.37,0-.35-.09-.47-.45-.45-.66,0-1.33,0-2,0-.27,0-.36-.07-.36-.35,0-1.32,0-2.65,0-4,0-.26.07-.34.33-.33.68,0,1.36,0,2,0,.39,0,.47-.12.47-.48q0-1.52,0-3a5.7,5.7,0,0,1,1.09-3.38A4.7,4.7,0,0,1,21.5,5.91c1.56-.07,3.13,0,4.7,0,.21,0,.28.08.28.29q0,2,0,4c0,.23-.08.31-.31.3H23.91A1.49,1.49,0,0,0,22.25,12c-.05.79,0,1.59,0,2.39,0,.28.16.26.35.26,1.14,0,2.28,0,3.43,0,.33,0,.44.07.4.42-.14,1.33-.26,2.66-.38,4,0,.3-.16.36-.43.35H22.88c-.65,0-.58-.1-.58.56q0,6.24,0,12.46c0,.44-.11.55-.55.54q-2.32,0-4.65,0c-.43,0-.51-.14-.5-.53Q16.63,29.3,16.62,26.16Z"/><circle class="cls-2" cx="20.15" cy="20.15" r="19.65"/></g></g></svg>