<svg xmlns="http://www.w3.org/2000/svg" width="25.2" height="30.93" viewBox="0 0 25.2 30.93"><defs><style>.cls-1{fill:#fff;}</style></defs><g id="Layer_2" data-name="Layer 2"><g id="Layer_1-2" data-name="Layer 1"><path class="cls-1" d="M22.78,16,20.61,14.1v2.16l1.1.95a5.44,5.44,0,0,1,1.87,4.1v9.61H25.2V21.31A7,7,0,0,0,22.78,16Z"/><path class="cls-1" d="M20.61,3.54A3.55,3.55,0,0,0,17.07,0H3.54A3.55,3.55,0,0,0,0,3.54V27.38a3.55,3.55,0,0,0,3.54,3.54H14.9l-.07-.46A8.31,8.31,0,0,1,14.77,29H3.54a1.62,1.62,0,0,1-1.61-1.61V3.54A1.62,1.62,0,0,1,3.54,1.93h.65a1,1,0,0,1,1,1A2.26,2.26,0,0,0,7.41,5.15h5.8A2.25,2.25,0,0,0,15.46,2.9a1,1,0,0,1,1-1h.64a1.62,1.62,0,0,1,1.61,1.61V18.38l1.93,1.81V3.54ZM13.53,2.9a.32.32,0,0,1-.32.32H7.41a.32.32,0,0,1-.32-.32,3.14,3.14,0,0,0-.17-1H13.7A2.87,2.87,0,0,0,13.53,2.9Z"/><path class="cls-1" d="M17.42,17.2a2.46,2.46,0,0,0-1.71-.68,2.5,2.5,0,0,0-2.1,1.14,2.58,2.58,0,0,0,.31,3.11l2.45,2.75a0,0,0,0,1,0,0A11.69,11.69,0,0,0,14.77,29a8.31,8.31,0,0,0,.06,1.47l.07.46h1.6l-.07-.71a7.74,7.74,0,0,1,0-1.23,10,10,0,0,1,1.67-5.09l.34-.5a.06.06,0,0,0,0,0L15.1,19.65A.93.93,0,0,1,15,18.58a.89.89,0,0,1,1.36-.2l2.37,2.23,1.93,1.81.68.64a0,0,0,0,0,0,0l1.08-1.14s0,0,0,0l-1.8-1.69-1.93-1.81Z"/><path class="cls-1" d="M14.78,15.47h-9A1.72,1.72,0,0,1,4,13.76V8.47A1.72,1.72,0,0,1,5.75,6.75h9a1.72,1.72,0,0,1,1.71,1.72v5.29A1.72,1.72,0,0,1,14.78,15.47Zm-9-7.78A.78.78,0,0,0,5,8.47v5.29a.78.78,0,0,0,.78.78h9a.77.77,0,0,0,.77-.78V8.47a.77.77,0,0,0-.77-.78Z"/><path class="cls-1" d="M7.93,11.74H7A1.09,1.09,0,0,1,5.9,10.65V9.71A1.09,1.09,0,0,1,7,8.62h.94A1.09,1.09,0,0,1,9,9.71v.94A1.09,1.09,0,0,1,7.93,11.74ZM7,9.56a.15.15,0,0,0-.15.15v.94A.15.15,0,0,0,7,10.8h.94a.15.15,0,0,0,.15-.15V9.71a.15.15,0,0,0-.15-.15Z"/><path class="cls-1" d="M14.15,13.6H6.37a.46.46,0,0,1-.47-.46.47.47,0,0,1,.47-.47h7.78a.47.47,0,0,1,.47.47A.46.46,0,0,1,14.15,13.6Z"/></g></g></svg>