<svg xmlns="http://www.w3.org/2000/svg" width="26.93" height="26.93" viewBox="0 0 26.93 26.93"><defs><style>.cls-1{fill:#fff;}</style></defs><g id="Layer_2" data-name="Layer 2"><g id="Layer_1-2" data-name="Layer 1"><path class="cls-1" d="M17.23,15.75a3.13,3.13,0,0,0-3.13-3.13H12.83a1.45,1.45,0,0,1,0-2.9h3.56a.85.85,0,0,0,0-1.69H14.31V6.37a.85.85,0,1,0-1.69,0V8l-.34.06a3.14,3.14,0,0,0,.55,6.23H14.1a1.45,1.45,0,0,1,0,2.9H10.54a.85.85,0,1,0,0,1.69h2.08v1.66a.85.85,0,1,0,1.69,0V18.91l.34-.06A3.13,3.13,0,0,0,17.23,15.75Z"/><path class="cls-1" d="M26.93,13.46A13.48,13.48,0,0,0,13.47,0h0A13.46,13.46,0,0,0,1.12,8.11l-.06.12S1,8.34,1,8.4a13.3,13.3,0,0,0-1,5.06H0A13.48,13.48,0,0,0,13.46,26.93h0a13.42,13.42,0,0,0,5.23-1.06h0l.23-.1a13.48,13.48,0,0,0,8-12.31Zm-25.25,0A11.78,11.78,0,0,1,20.27,3.85L5.63,22.25A11.76,11.76,0,0,1,1.68,13.46ZM21.65,5A11.77,11.77,0,0,1,7.05,23.34Z"/></g></g></svg>